<svg xmlns="http://www.w3.org/2000/svg" viewBox="0 0 200 200" width="200" height="200">
  <defs>
    <linearGradient id="bg-ac" x1="0%" y1="0%" x2="100%" y2="100%">
      <stop offset="0%" stop-color="#E11D48"/>
      <stop offset="50%" stop-color="#BE123C"/>
      <stop offset="100%" stop-color="#9F1239"/>
    </linearGradient>
    <clipPath id="clip-ac">
      <circle cx="100" cy="100" r="96"/>
    </clipPath>
    <radialGradient id="glow-ac" cx="50%" cy="30%" r="55%">
      <stop offset="0%" stop-color="#ffffff" stop-opacity="0.12"/>
      <stop offset="100%" stop-color="#ffffff" stop-opacity="0"/>
    </radialGradient>
  </defs>
  <circle cx="100" cy="100" r="98" fill="none" stroke="#E11D48" stroke-opacity="0.3" stroke-width="2"/>
  <circle cx="100" cy="100" r="96" fill="url(#bg-ac)"/>
  <circle cx="100" cy="100" r="96" fill="url(#glow-ac)"/>
  <g clip-path="url(#clip-ac)" fill="#ffffff" fill-opacity="0.92">
    <ellipse cx="100" cy="70" rx="28" ry="30"/>
    <path d="M72 60 Q72 45 80 36 Q88 28 100 26 Q112 28 120 36 Q128 45 128 60 Q126 50 120 44 Q114 38 100 37 Q86 38 80 44 Q74 50 72 60 Z"/>
    <path d="M78 52 Q80 40 90 34 Q100 30 110 34 Q120 40 122 52 Q118 45 110 40 Q100 37 90 40 Q82 45 78 52 Z"/>
    <path d="M72 58 Q70 62 70 68" fill="none" stroke="#BE123C" stroke-opacity="0.2" stroke-width="1"/>
    <path d="M128 58 Q130 62 130 68" fill="none" stroke="#BE123C" stroke-opacity="0.2" stroke-width="1"/>
    <rect x="89" y="97" width="22" height="16" rx="3"/>
    <path d="M100 111 Q140 111 162 138 Q175 158 178 188 L178 220 L22 220 L22 188 Q25 158 38 138 Q60 111 100 111 Z"/>
    <path d="M82 111 L65 155 L88 140 Z" fill="#9F1239" fill-opacity="0.25"/>
    <path d="M118 111 L135 155 L112 140 Z" fill="#9F1239" fill-opacity="0.25"/>
    <path d="M88 111 L95 125 L100 120 L105 125 L112 111" fill="none" stroke="#9F1239" stroke-opacity="0.2" stroke-width="1.5"/>
    <circle cx="100" cy="155" r="2.5" fill="#9F1239" fill-opacity="0.2"/>
    <circle cx="100" cy="170" r="2.5" fill="#9F1239" fill-opacity="0.2"/>
    <path d="M78 148 L82 140 L86 148 Z" fill="#ffffff" fill-opacity="0.6"/>
  </g>
</svg>
