<?xml version="1.0" encoding="utf-8"?>
<!-- Generator: Adobe Illustrator 27.0.0, SVG Export Plug-In . SVG Version: 6.00 Build 0)  -->
<svg version="1.1" id="Layer_1" xmlns="http://www.w3.org/2000/svg" xmlns:xlink="http://www.w3.org/1999/xlink" x="0px" y="0px"
	 width="131px" height="78.7px" viewBox="0 0 131 78.7" style="enable-background:new 0 0 131 78.7;" xml:space="preserve">
<style type="text/css">
	.st0{fill:#FFFFFF;}
</style>
<g>
	<g>
		<g>
			<g>
				<g>
					<g>
						<g>
							<g>
								<path class="st0" d="M59.9,64c-0.4-0.4-0.9-0.7-1.5-0.8c0.2-0.1,0.3-0.1,0.4-0.2c0.1,0,0.2-0.1,0.4-0.3
									c0.5-0.4,0.8-1,0.8-1.7c0-0.6-0.2-1.2-0.7-1.7c-0.2-0.3-0.6-0.5-1.1-0.7s-1.1-0.2-1.8-0.2h-4.1v9.9H57c1.4,0,2.4-0.3,3-0.9
									c0.5-0.5,0.7-1.1,0.7-1.8C60.5,65,60.3,64.4,59.9,64z M58.1,66.5c-0.3,0.2-0.8,0.3-1.5,0.3h-2.7V60h2.2
									c0.6,0,1.1,0.1,1.4,0.3c0.3,0.2,0.5,0.6,0.5,1c0,0.8-0.6,1.2-1.9,1.2h-1.3V64h1.6c1.5,0,2.2,0.4,2.2,1.3
									C58.7,65.9,58.5,66.3,58.1,66.5z"/>
								<path class="st0" d="M73.2,64.8c1.5-0.4,2.2-1.5,2.2-3.1c0-1.1-0.3-1.9-1-2.4s-1.8-0.8-3.4-0.8h-3.9v9.9h1.8V60h2.2
									c0.9,0,1.6,0.1,2,0.4c0.4,0.3,0.6,0.7,0.6,1.3s-0.2,1.1-0.5,1.4c-0.4,0.3-1,0.4-2,0.4H70V65h1.3l2.5,3.3H76L73.2,64.8z"/>
								<path class="st0" d="M82.3,58.5h1.8v9.9h-1.8V58.5z"/>
								<path class="st0" d="M99.3,59.8c1,0.9,1.5,2.1,1.5,3.6c0,1.5-0.5,2.7-1.5,3.6s-2.5,1.3-4.5,1.3h-3.5v-9.9h3.6
									C96.9,58.5,98.3,58.9,99.3,59.8z M99.1,63.4c0-2.3-1.4-3.4-4.1-3.4h-1.8v6.8h2c1.3,0,2.2-0.3,2.9-0.9
									C98.7,65.4,99.1,64.4,99.1,63.4z"/>
								<path class="st0" d="M114.8,63.6h1.8V67c-1,1-2.4,1.5-4.2,1.5c-1.5,0-2.8-0.5-3.9-1.4s-1.6-2.2-1.6-3.6
									c0-1.5,0.5-2.7,1.6-3.7s2.3-1.5,3.8-1.5s2.7,0.4,3.7,1.2l-0.9,1.3c-0.4-0.3-0.8-0.6-1.2-0.7s-0.9-0.2-1.4-0.2
									c-1.1,0-1.9,0.3-2.7,1c-0.7,0.6-1.1,1.5-1.1,2.5c0,1,0.3,1.9,1,2.5s1.5,1,2.5,1s1.8-0.2,2.5-0.6L114.8,63.6L114.8,63.6z"/>
								<path class="st0" d="M130.6,58.5v1.6H125v2.6h3.6v1.5H125v2.6h5.7v1.6h-7.3v-9.9C123.4,58.5,130.6,58.5,130.6,58.5z"/>
							</g>
							<g>
								<path class="st0" d="M9.4,67c-1.1,1-2.4,1.5-3.9,1.5C4,68.4,2.7,68,1.6,67S0,64.8,0,63.4c0-1.5,0.5-2.7,1.6-3.6
									c1.1-1,2.4-1.5,3.9-1.5s2.8,0.5,3.9,1.5S11,62,11,63.4C11,64.8,10.4,65.9,9.4,67z M8.1,60.8c-0.7-0.7-1.6-1-2.6-1
									S3.7,60,3,60.8c-0.7,0.7-1.1,1.5-1.1,2.5c0,1,0.4,1.8,1.1,2.5s1.6,1,2.6,1s1.9-0.3,2.6-1s1.1-1.5,1.1-2.5
									C9.2,62.4,8.8,61.5,8.1,60.8z"/>
								<path class="st0" d="M17.6,68.4v-9.9h1.8v8.3h4.8v1.6H17.6z"/>
								<path class="st0" d="M38.3,59.8c1,0.9,1.5,2.1,1.5,3.6c0,1.5-0.5,2.7-1.5,3.6s-2.5,1.3-4.5,1.3h-3.4v-9.9H34
									C36,58.5,37.4,58.9,38.3,59.8z M38.1,63.4c0-2.3-1.4-3.4-4.1-3.4h-1.8v6.8h2c1.3,0,2.2-0.3,2.9-0.9
									C37.7,65.4,38.1,64.4,38.1,63.4z"/>
							</g>
						</g>
					</g>
				</g>
			</g>
		</g>
		<g>
			<path class="st0" d="M4.3,77.3H1.5l-0.6,1.4H0.3l2.3-5.1h0.6l2.3,5.1H4.9L4.3,77.3z M4.1,76.9l-1.3-2.7l-1.3,2.7H4.1z"/>
			<path class="st0" d="M9.4,78.5C9,78.3,8.7,78.2,8.5,78l0.2-0.4c0.2,0.2,0.4,0.3,0.8,0.4c0.3,0.1,0.6,0.1,1,0.1
				c0.5,0,0.8-0.1,1-0.3c0.2-0.1,0.3-0.4,0.3-0.6s-0.1-0.3-0.2-0.5c-0.1-0.1-0.3-0.2-0.5-0.3c-0.2-0.1-0.4-0.1-0.8-0.2
				c-0.2,0-0.6-0.2-0.8-0.2c-0.2-0.1-0.4-0.2-0.6-0.4c-0.1-0.2-0.2-0.4-0.2-0.8c0-0.3,0.1-0.5,0.2-0.7c0.1-0.2,0.3-0.3,0.6-0.5
				c0.3-0.1,0.6-0.2,1-0.2c0.3,0,0.6,0.1,0.8,0.1c0.3,0.1,0.5,0.2,0.7,0.3l-0.2,0.4c-0.2-0.1-0.4-0.3-0.7-0.3
				c-0.2-0.1-0.5-0.1-0.7-0.1c-0.4,0-0.8,0.1-1,0.3c-0.2,0.1-0.3,0.4-0.3,0.7c0,0.2,0.1,0.3,0.2,0.5c0.1,0.1,0.3,0.2,0.5,0.3
				c0.2,0.1,0.4,0.1,0.8,0.2c0.3,0.1,0.7,0.2,0.9,0.3c0.2,0.1,0.4,0.2,0.6,0.4c0.1,0.2,0.2,0.4,0.2,0.8c0,0.3-0.1,0.5-0.2,0.7
				c-0.1,0.2-0.3,0.3-0.6,0.5c-0.3,0.1-0.6,0.2-1,0.2C10.1,78.7,9.7,78.6,9.4,78.5z"/>
			<path class="st0" d="M16.5,78.5c-0.3-0.1-0.6-0.3-0.8-0.5l0.2-0.4c0.2,0.2,0.4,0.3,0.8,0.4c0.3,0.1,0.6,0.1,1,0.1
				c0.5,0,0.8-0.1,1-0.3c0.2-0.1,0.3-0.4,0.3-0.6s-0.1-0.3-0.2-0.5c-0.1-0.1-0.3-0.2-0.5-0.3c-0.2-0.1-0.4-0.1-0.8-0.2
				c-0.3-0.1-0.7-0.2-0.9-0.3c-0.2-0.1-0.4-0.2-0.6-0.4c-0.1-0.2-0.2-0.4-0.2-0.8c0-0.3,0.1-0.5,0.2-0.7c0.1-0.2,0.3-0.3,0.6-0.5
				c0.3-0.1,0.6-0.2,1-0.2c0.3,0,0.6,0.1,0.8,0.1c0.3,0.1,0.5,0.2,0.7,0.3l-0.2,0.4c-0.2-0.1-0.4-0.3-0.7-0.3
				c-0.2-0.1-0.5-0.1-0.7-0.1c-0.4,0-0.8,0.1-1,0.3c-0.2,0.1-0.3,0.4-0.3,0.7c0,0.2,0.1,0.3,0.2,0.5c0.1,0.1,0.3,0.2,0.5,0.3
				c0.2,0.1,0.4,0.1,0.8,0.2c0.3,0.1,0.7,0.2,0.9,0.3c0.2,0.1,0.4,0.2,0.6,0.4c0.1,0.2,0.2,0.4,0.2,0.8c0,0.3-0.1,0.5-0.2,0.7
				s-0.3,0.3-0.6,0.5c-0.3,0.2-0.6,0.3-1,0.3C17.3,78.7,16.9,78.6,16.5,78.5z"/>
			<path class="st0" d="M27.1,78.2v0.5h-3.6v-5.1H27v0.5h-3v1.8h2.6v0.5H24v1.9L27.1,78.2L27.1,78.2z"/>
			<path class="st0" d="M32,74h-1.8v-0.5h4.1V74h-1.8v4.6H32V74L32,74z"/>
			<path class="st0" d="M57,73.5v5.1h-0.5v-4l-2,3.4h-0.3l-2-3.4v4h-0.4v-5.1h0.4l2.2,3.8l2.2-3.8C56.6,73.5,57,73.5,57,73.5z"/>
			<path class="st0" d="M64.6,77.3h-2.9l-0.6,1.4h-0.6l2.3-5.1h0.6l2.3,5.1h-0.6L64.6,77.3z M64.4,76.9l-1.3-2.7l-1.3,2.7H64.4z"/>
			<path class="st0" d="M73.6,73.5v5.1h-0.4l-3.3-4.1v4.1h-0.6v-5.1h0.4l3.3,4.1v-4.1C73.1,73.5,73.6,73.5,73.6,73.5z"/>
			<path class="st0" d="M81.2,77.3h-2.9l-0.6,1.4h-0.6l2.3-5.1H80l2.3,5.1h-0.6L81.2,77.3z M81,76.9l-1.3-2.7l-1.3,2.7H81z"/>
			<path class="st0" d="M89.5,76.1H90v2c-0.2,0.2-0.5,0.3-0.8,0.5c-0.3,0.1-0.7,0.1-1,0.1c-0.5,0-1-0.1-1.4-0.3
				c-0.4-0.2-0.7-0.6-1-0.9c-0.2-0.4-0.3-0.8-0.3-1.3s0.1-0.9,0.3-1.3c0.2-0.4,0.6-0.7,1-0.9c0.4-0.2,0.8-0.3,1.4-0.3
				c0.4,0,0.8,0.1,1,0.2c0.3,0.1,0.6,0.3,0.8,0.6l-0.3,0.3c-0.4-0.4-0.9-0.6-1.5-0.6c-0.4,0-0.8,0.1-1.1,0.3
				c-0.3,0.2-0.6,0.4-0.8,0.8c-0.2,0.3-0.3,0.7-0.3,1s0.1,0.8,0.3,1s0.4,0.6,0.8,0.8c0.3,0.2,0.7,0.3,1.1,0.3c0.6,0,1-0.1,1.3-0.4
				V76.1L89.5,76.1z"/>
			<path class="st0" d="M97.9,78.2v0.5h-3.6v-5.1h3.5v0.5h-2.9v1.8h2.6v0.5h-2.6v1.9L97.9,78.2L97.9,78.2z"/>
			<path class="st0" d="M107.2,73.5v5.1h-0.5v-4l-2,3.4h-0.3l-2-3.4v4h-0.5v-5.1h0.4l2.2,3.8l2.2-3.8
				C106.7,73.5,107.2,73.5,107.2,73.5z"/>
			<path class="st0" d="M115.1,78.2v0.5h-3.6v-5.1h3.5v0.5h-3v1.8h2.6v0.5H112v1.9L115.1,78.2L115.1,78.2z"/>
			<path class="st0" d="M123.3,73.5v5.1h-0.4l-3.3-4.1v4.1H119v-5.1h0.4l3.3,4.1v-4.1C122.8,73.5,123.3,73.5,123.3,73.5z"/>
			<path class="st0" d="M128.7,74h-1.8v-0.5h4.1V74h-1.8v4.6h-0.6L128.7,74L128.7,74z"/>
		</g>
	</g>
	<g>
		<g>
			<path class="st0" d="M36.5,37.2c1.6-0.3,3.6-0.7,6-1.3v6.5h-6V37.2z"/>
			<path class="st0" d="M51.6,33.8v8.7h-7.8v-6.7C46.2,35.3,48.9,34.7,51.6,33.8z"/>
			<path class="st0" d="M60.8,30.8v11.7H53v-9.1C55.6,32.7,58.1,31.8,60.8,30.8z"/>
			<path class="st0" d="M70.2,27.1v15.4h-8.1V30.4c0.3-0.1,0.6-0.1,0.9-0.3C65.2,29.3,67.7,28.3,70.2,27.1z"/>
			<path class="st0" d="M81.4,21.3v21.2h-10V26.6C74.8,25.2,78.2,23.3,81.4,21.3z"/>
			<path class="st0" d="M93.5,12.2v30.3H82.7V20.6C86.6,18.1,90.3,15.4,93.5,12.2z"/>
			<path class="st0" d="M90.7,0c-11.4,19.2-38.5,28.9-54,33.1V0H90.7z"/>
			<path class="st0" d="M93.5,4.8v5.7c-16.9,16.8-46.8,24.2-57,26V35c5.3-1.3,11.8-3,18.8-5.5C72.1,23,85.7,14.6,93.5,4.8z"/>
		</g>
	</g>
</g>
</svg>
