<?xml version="1.0" encoding="UTF-8"?>
<svg id="Layer_1" data-name="Layer 1" xmlns="http://www.w3.org/2000/svg" version="1.1" viewBox="0 0 666.14 113.39">
  <defs>
    <style>
      .cls-1 {
        fill: #00529b;
      }

      .cls-1, .cls-2 {
        stroke-width: 0px;
      }

      .cls-2 {
        fill: #231f20;
      }
    </style>
  </defs>
  <path class="cls-1" d="M63.45,39.46c5.65,0,10.1-4.59,10.1-10.05s-4.45-10.32-10.1-10.32-10.3,4.61-10.3,10.32,4.63,10.05,10.3,10.05"/>
  <path class="cls-1" d="M75.27,40.67h-40.92c-9.57.01-17.34,7.75-17.34,17.33s7.77,17.28,17.34,17.28h20.92c.96,0,1.74.75,1.74,1.71s-.77,1.73-1.74,1.73H17.11v15.57h40.64c9.56,0,17.33-7.69,17.33-17.26s-7.77-17.32-17.33-17.32h-20.04c-.95-.01-1.72-.79-1.72-1.75s.77-1.73,1.72-1.73h37.55v38.14h16.55v-38.14h19.38v-15.56h-19.38v-2.84c0-1.09.88-1.94,1.96-1.94h17.38v-16.84l-17.33-.03c-10.24,0-18.55,8.31-18.55,18.55v3.11Z"/>
  <rect class="cls-2" x="147.05" y="19.02" width="3.54" height="75.35"/>
  <path class="cls-2" d="M197.06,21.89c-1.42,0-2.58.42-3.47,1.25-.89.83-1.34,1.8-1.34,2.91s.35,2.07,1.04,2.8c.69.73,1.56,1.38,2.61,1.97,1.05.59,2.17,1.15,3.38,1.69,1.2.54,2.33,1.2,3.38,1.99,1.05.79,1.92,1.74,2.61,2.87.69,1.13,1.04,2.57,1.04,4.32,0,1.54-.29,2.95-.88,4.23s-1.42,2.37-2.5,3.28c-1.08.91-2.37,1.6-3.86,2.08-1.5.48-3.17.72-5.02.72-1.67,0-3.15-.18-4.46-.53-1.31-.35-2.31-.79-2.98-1.32.31-1.08.57-2.07.79-2.96.21-.89.4-1.86.56-2.91h.88c.12.68.36,1.32.7,1.92.34.6.77,1.13,1.29,1.6.52.46,1.16.83,1.9,1.09.74.26,1.57.39,2.5.39,1.85,0,3.21-.46,4.09-1.39.88-.92,1.32-2.03,1.32-3.33,0-1.17-.34-2.13-1.02-2.87-.68-.74-1.53-1.39-2.54-1.96-1.02-.57-2.13-1.13-3.33-1.67-1.2-.54-2.31-1.19-3.33-1.97-1.02-.77-1.87-1.72-2.54-2.84-.68-1.13-1.02-2.57-1.02-4.32,0-1.6.29-3.02.86-4.25.57-1.23,1.33-2.27,2.29-3.1.95-.83,2.06-1.46,3.31-1.9,1.25-.43,2.57-.65,3.95-.65,1.67,0,3.12.2,4.37.6,1.25.4,2.32.96,3.21,1.67-.28.71-.52,1.4-.72,2.06-.2.66-.45,1.5-.76,2.52h-.69c-.99-2.65-2.85-3.98-5.6-3.98"/>
  <path class="cls-2" d="M224.72,51.99c-1.97,0-3.82-.21-5.53-.62-1.71-.42-3.2-1.11-4.46-2.08-1.26-.97-2.26-2.22-2.98-3.75-.72-1.53-1.09-3.38-1.09-5.57,0-1.23,0-2.33.02-3.31.02-.97.02-1.87.02-2.71s0-1.64.02-2.4c.01-.77.02-1.57.02-2.4,0-2.5-.02-4.52-.05-6.06-.03-1.54-.08-2.7-.14-3.47.62.06,1.25.11,1.9.16.65.05,1.28.07,1.9.07s1.25-.02,1.9-.07c.65-.05,1.28-.1,1.9-.16-.31,2.99-.49,5.77-.56,8.35-.06,2.57-.09,5.19-.09,7.84,0,2.81.2,5.07.6,6.8.4,1.73.99,3.06,1.78,4,.79.94,1.75,1.57,2.89,1.87,1.14.31,2.47.46,3.98.46,1.85,0,3.3-.46,4.35-1.39,1.05-.93,1.84-2.16,2.38-3.7.54-1.54.87-3.31.99-5.3.12-1.99.19-4.06.19-6.22s-.03-4.25-.09-6.36c-.06-2.11-.15-4.23-.28-6.36.43.06.85.11,1.25.16.4.05.77.07,1.11.07.4,0,.79-.02,1.16-.07.37-.05.76-.1,1.16-.16-.06.68-.12,1.59-.18,2.73-.06,1.14-.12,2.46-.18,3.96-.06,1.49-.12,3.14-.16,4.95-.05,1.8-.07,3.71-.07,5.71,0,5.36-1.16,9.21-3.47,11.54-2.31,2.33-5.71,3.49-10.17,3.49"/>
  <path class="cls-2" d="M244.56,28.82c0-2.13-.03-3.91-.09-5.36-.06-1.45-.11-2.73-.14-3.84.86.15,1.56.23,2.08.23s1.22-.08,2.08-.23c3.36,3.73,6.68,7.4,9.97,11.01,3.28,3.61,6.65,7.28,10.11,11.01v-8.51c0-1.51,0-3-.02-4.46-.02-1.46-.03-2.81-.05-4.05-.02-1.23-.05-2.3-.09-3.19-.05-.89-.1-1.49-.16-1.8.86.15,1.56.23,2.08.23s1.22-.08,2.08-.23c-.15,2.8-.28,5.34-.37,7.61-.09,2.27-.17,4.4-.23,6.41-.06,2-.1,3.99-.12,5.94-.02,1.96-.02,4.05-.02,6.27v5.55c-.62-.06-1.25-.09-1.9-.09s-1.28.03-1.8.09c-6.35-7.4-13.09-14.85-20.21-22.34-.03.89-.05,1.79-.07,2.68-.02.9-.02,1.8-.02,2.73v5.37c0,1.85,0,3.42.02,4.72.02,1.3.04,2.39.07,3.28.03.9.06,1.63.09,2.2.03.57.06,1.02.09,1.36-.37-.06-.74-.09-1.11-.09h-1.07c-.71,0-1.42.03-2.13.09.06-.25.14-1.13.23-2.64.09-1.51.19-3.35.3-5.53.11-2.17.2-4.53.28-7.08.08-2.54.12-4.99.12-7.33"/>
  <path class="cls-2" d="M279.27,32.43c0-2.56-.03-4.83-.09-6.82-.06-1.99-.15-3.98-.28-5.99.52.06,1.09.11,1.71.16.62.05,1.31.07,2.08.07,1.02,0,2.16-.04,3.42-.12,1.26-.08,2.91-.11,4.95-.11,2.65,0,5.06.24,7.24.72,2.18.48,4.05,1.29,5.62,2.43,1.57,1.14,2.79,2.68,3.66,4.6.86,1.93,1.29,4.35,1.29,7.28,0,2.56-.42,4.87-1.27,6.94-.85,2.07-2.01,3.83-3.47,5.3-1.46,1.46-3.16,2.58-5.09,3.35-1.93.77-3.99,1.16-6.17,1.16-2.31,0-4.29-.02-5.92-.05-1.63-.03-3.05-.05-4.26-.05h-2.08c-.62,0-1.19.03-1.71.09.12-1.91.21-3.86.28-5.85.06-1.99.09-4.26.09-6.82v-6.29ZM286.12,42.1v2.78c0,.89,0,1.71.02,2.45.02.74.02,1.22.02,1.43.46.03,1.02.06,1.67.09.65.03,1.45.05,2.4.05,3.48,0,6.24-1.19,8.28-3.56,2.03-2.37,3.05-5.97,3.05-10.78,0-1.91-.25-3.62-.76-5.13-.51-1.51-1.23-2.8-2.15-3.86-.92-1.06-2.04-1.88-3.33-2.45-1.29-.57-2.74-.85-4.35-.85-1.11,0-2.01.02-2.71.07-.69.05-1.39.1-2.1.16,0,.22,0,.69-.02,1.43-.02.74-.02,1.57-.02,2.5v15.68Z"/>
  <path class="cls-2" d="M338.89,51.39c-.74-.06-1.44-.09-2.1-.09h-3.93c-.66,0-1.32.03-1.96.09-.49-1.51-1-3.05-1.53-4.63-.52-1.57-1.08-3.14-1.66-4.72-.99-.03-1.97-.05-2.96-.07-.99-.02-1.98-.02-2.96-.02-.8,0-1.6,0-2.4.02-.8.02-1.6.04-2.4.07-.62,1.57-1.19,3.15-1.71,4.72-.52,1.57-1,3.11-1.43,4.63-.37-.06-.73-.09-1.09-.09h-2.2c-.37,0-.77.03-1.2.09.37-.8.86-1.91,1.48-3.33.62-1.42,1.3-3.02,2.04-4.81.74-1.79,1.53-3.71,2.38-5.76.85-2.05,1.7-4.12,2.54-6.22.85-2.1,1.68-4.16,2.5-6.2.82-2.04,1.57-3.93,2.24-5.69.31.06.6.12.88.16.28.05.57.07.88.07s.6-.02.88-.07c.28-.05.57-.1.88-.16.99,2.62,2.04,5.43,3.17,8.42,1.12,2.99,2.26,5.93,3.4,8.81,1.14,2.88,2.25,5.62,3.33,8.21,1.08,2.59,2.07,4.78,2.96,6.57M322.52,28.32c-.8,1.85-1.56,3.68-2.27,5.48-.71,1.8-1.4,3.65-2.08,5.53h8.46c-.68-1.88-1.35-3.72-2.01-5.53-.66-1.8-1.36-3.63-2.1-5.48"/>
  <path class="cls-2" d="M351.1,36.83v1.9c0,2.56.03,4.83.09,6.82.06,1.99.15,3.94.28,5.85-.52-.06-1.09-.09-1.71-.09h-4.16c-.61,0-1.19.03-1.71.09.12-1.91.22-3.86.28-5.85.06-1.99.09-4.26.09-6.82v-6.29c0-2.56-.03-4.83-.09-6.82-.06-1.99-.15-3.98-.28-5.99.52.06,1.1.11,1.71.16.62.05,1.31.07,2.08.07.83,0,1.78-.04,2.84-.12,1.07-.08,2.38-.11,3.95-.11,1.17,0,2.17.03,3.01.09.83.06,1.55.16,2.15.28.6.12,1.12.29,1.57.49.45.2.87.44,1.27.72.93.68,1.66,1.52,2.2,2.52.54,1,.81,2.2.81,3.58,0,2.25-.61,4.09-1.85,5.5-1.24,1.42-3.01,2.42-5.32,3.01,1.48,2.62,3.07,5.23,4.76,7.84,1.7,2.61,3.39,5.19,5.09,7.75-.71-.06-1.4-.09-2.08-.09h-4.19c-.69,0-1.39.03-2.1.09l-8.28-14.57h-.41ZM358.41,28.32c0-1.36-.14-2.43-.42-3.24-.28-.8-.7-1.41-1.27-1.83-.57-.42-1.31-.69-2.22-.81-.91-.12-2-.19-3.26-.19-.09,4.2-.14,8.39-.14,12.58.18.03.36.05.53.07.17.02.33.02.48.02,2.04,0,3.59-.55,4.67-1.64s1.62-2.75,1.62-4.97"/>
  <path class="cls-2" d="M400.88,51.39c-.74-.06-1.44-.09-2.1-.09h-3.93c-.66,0-1.32.03-1.97.09-.49-1.51-1-3.05-1.53-4.63-.52-1.57-1.08-3.14-1.66-4.72-.99-.03-1.97-.05-2.96-.07-.99-.02-1.98-.02-2.96-.02-.8,0-1.6,0-2.4.02-.8.02-1.6.04-2.4.07-.62,1.57-1.19,3.15-1.71,4.72-.52,1.57-1,3.11-1.43,4.63-.37-.06-.73-.09-1.09-.09h-2.2c-.37,0-.77.03-1.2.09.37-.8.86-1.91,1.48-3.33.62-1.42,1.3-3.02,2.04-4.81.74-1.79,1.53-3.71,2.38-5.76.85-2.05,1.7-4.12,2.54-6.22.85-2.1,1.68-4.16,2.5-6.2.82-2.04,1.57-3.93,2.24-5.69.31.06.6.12.88.16.28.05.57.07.88.07s.6-.02.88-.07c.28-.05.57-.1.88-.16.99,2.62,2.04,5.43,3.17,8.42,1.12,2.99,2.26,5.93,3.4,8.81,1.14,2.88,2.25,5.62,3.33,8.21,1.08,2.59,2.07,4.78,2.96,6.57M384.51,28.32c-.8,1.85-1.56,3.68-2.27,5.48-.71,1.8-1.4,3.65-2.08,5.53h8.46c-.68-1.88-1.35-3.72-2.01-5.53-.66-1.8-1.36-3.63-2.1-5.48"/>
  <path class="cls-2" d="M409.52,41.03l-.74,10.36c-.37-.06-.74-.09-1.11-.09h-2.15c-.35,0-.72.03-1.09.09.99-5.3,1.86-10.58,2.64-15.82.77-5.24,1.48-10.56,2.13-15.96.34.06.65.11.95.16.29.05.61.07.95.07.28,0,.57-.02.88-.07.31-.05.63-.1.97-.16.83,1.85,1.7,3.73,2.61,5.64.91,1.91,1.82,3.82,2.73,5.71.91,1.9,1.82,3.76,2.73,5.57.91,1.82,1.78,3.55,2.61,5.18,1.85-3.45,3.69-7.07,5.53-10.85,1.83-3.77,3.58-7.53,5.25-11.26.77.15,1.43.23,1.99.23.52,0,1.17-.08,1.94-.23.31,2.65.64,5.5.99,8.56.35,3.05.7,6.03,1.04,8.95.34,2.91.68,5.64,1.02,8.16.34,2.53.65,4.56.93,6.11-.62-.06-1.24-.09-1.87-.09h-3.77c-.65,0-1.29.03-1.94.09-.15-3.17-.41-6.61-.76-10.31-.36-3.7-.72-7.37-1.09-11.01h-.09c-1.76,3.64-3.49,7.22-5.18,10.73-1.7,3.52-3.38,7.05-5.04,10.59-.15-.03-.3-.05-.44-.07-.14-.02-.29-.02-.44-.02s-.3,0-.44.02c-.14.01-.29.04-.44.07-1.67-3.45-3.32-6.91-4.97-10.36-1.65-3.45-3.35-6.95-5.11-10.5h-.09c-.5,3.55-.86,7.05-1.11,10.5"/>
  <path class="cls-2" d="M464.54,41.03c-.25,3.46-.49,6.91-.74,10.36-.37-.06-.74-.09-1.11-.09h-2.15c-.35,0-.72.03-1.09.09.99-5.3,1.86-10.58,2.64-15.82.77-5.24,1.48-10.56,2.13-15.96.34.06.65.12.95.16.29.05.61.07.95.07.28,0,.57-.02.88-.07.31-.05.63-.1.97-.16.83,1.85,1.7,3.73,2.61,5.64.91,1.91,1.82,3.81,2.73,5.71.91,1.9,1.82,3.76,2.73,5.57.91,1.82,1.78,3.55,2.61,5.18,1.85-3.45,3.69-7.07,5.53-10.85,1.83-3.78,3.58-7.53,5.25-11.26.77.16,1.43.23,1.99.23.52,0,1.17-.08,1.94-.23.31,2.65.64,5.51.99,8.56.35,3.05.7,6.04,1.04,8.95.34,2.91.68,5.63,1.02,8.16.34,2.53.65,4.57.93,6.11-.62-.06-1.24-.09-1.87-.09h-3.77c-.65,0-1.29.03-1.94.09-.15-3.18-.41-6.61-.76-10.32-.36-3.7-.72-7.37-1.09-11.01h-.09c-1.76,3.64-3.49,7.21-5.18,10.73-1.7,3.51-3.38,7.04-5.04,10.59-.15-.03-.3-.05-.44-.07-.14-.02-.29-.02-.44-.02s-.3,0-.44.02c-.14.02-.29.04-.44.07-1.67-3.45-3.32-6.91-4.97-10.36-1.65-3.45-3.35-6.95-5.11-10.5h-.09c-.5,3.55-.86,7.05-1.11,10.5"/>
  <path class="cls-2" d="M517.18,51.99c-1.97,0-3.82-.21-5.53-.62-1.71-.41-3.2-1.11-4.46-2.08-1.26-.97-2.26-2.22-2.98-3.75-.72-1.53-1.09-3.38-1.09-5.57,0-1.23,0-2.34.02-3.31.02-.97.02-1.87.02-2.71s0-1.63.02-2.4c.02-.77.02-1.57.02-2.4,0-2.5-.02-4.52-.05-6.06-.03-1.54-.08-2.7-.14-3.47.62.06,1.25.12,1.9.16.65.05,1.28.07,1.9.07s1.25-.02,1.9-.07c.65-.05,1.28-.1,1.9-.16-.31,2.99-.49,5.77-.55,8.35-.06,2.57-.09,5.19-.09,7.84,0,2.81.2,5.07.6,6.8.4,1.73.99,3.06,1.78,4,.79.94,1.75,1.56,2.89,1.87,1.14.31,2.47.46,3.98.46,1.85,0,3.3-.46,4.35-1.39,1.05-.93,1.84-2.16,2.38-3.7.54-1.54.87-3.3.99-5.3.12-1.99.19-4.06.19-6.22s-.03-4.25-.09-6.36c-.06-2.11-.15-4.23-.28-6.36.43.06.85.12,1.25.16.4.05.77.07,1.11.07.4,0,.79-.02,1.16-.07.37-.05.76-.1,1.16-.16-.06.68-.12,1.59-.19,2.73-.06,1.14-.12,2.46-.18,3.96-.06,1.49-.12,3.14-.16,4.95-.05,1.8-.07,3.71-.07,5.71,0,5.37-1.15,9.21-3.47,11.54-2.32,2.33-5.71,3.49-10.18,3.49"/>
  <path class="cls-2" d="M544.49,24.71c-.02-.74-.05-1.28-.12-1.62-.46,0-1.03.02-1.71.05-.68.03-1.4.07-2.17.11-.77.05-1.56.11-2.36.19-.8.08-1.54.16-2.22.25.06-.34.11-.68.16-1.02.05-.34.07-.68.07-1.02s-.02-.68-.07-1.02c-.05-.34-.1-.68-.16-1.02,1.05.03,1.99.06,2.84.09.85.03,1.71.05,2.59.07.88.01,1.83.03,2.87.05,1.03.02,2.27.02,3.72.02s2.69,0,3.72-.02c1.03-.02,1.98-.03,2.84-.05.86-.02,1.7-.04,2.52-.07.82-.03,1.7-.06,2.66-.09-.06.34-.12.68-.16,1.02-.05.34-.07.68-.07,1.02s.02.68.07,1.02c.05.34.1.68.16,1.02-.62-.09-1.31-.18-2.08-.25-.77-.08-1.54-.14-2.29-.19-.76-.04-1.47-.08-2.15-.11-.68-.03-1.25-.05-1.71-.05-.03.16-.05.37-.07.65-.02.28-.02.6-.02.97v14.01c0,2.56.03,4.83.09,6.82.06,1.99.15,3.94.28,5.85-.52-.06-1.1-.09-1.71-.09h-4.16c-.62,0-1.19.03-1.71.09.12-1.91.22-3.86.28-5.85.06-1.99.09-4.26.09-6.82v-11.56c0-.89,0-1.71-.02-2.45"/>
  <path class="cls-2" d="M578.88,51.99c-1.97,0-3.82-.21-5.53-.62-1.71-.41-3.2-1.11-4.46-2.08-1.26-.97-2.26-2.22-2.98-3.75-.72-1.53-1.09-3.38-1.09-5.57,0-1.23,0-2.34.02-3.31.02-.97.02-1.87.02-2.71s0-1.63.02-2.4c.02-.77.02-1.57.02-2.4,0-2.5-.02-4.52-.05-6.06-.03-1.54-.08-2.7-.14-3.47.62.06,1.25.12,1.9.16.65.05,1.28.07,1.9.07s1.25-.02,1.9-.07c.65-.05,1.28-.1,1.9-.16-.31,2.99-.49,5.77-.55,8.35-.06,2.57-.09,5.19-.09,7.84,0,2.81.2,5.07.6,6.8.4,1.73.99,3.06,1.78,4,.79.94,1.75,1.56,2.89,1.87,1.14.31,2.47.46,3.98.46,1.85,0,3.3-.46,4.35-1.39,1.05-.93,1.84-2.16,2.38-3.7.54-1.54.87-3.3.99-5.3.12-1.99.19-4.06.19-6.22s-.03-4.25-.09-6.36c-.06-2.11-.15-4.23-.28-6.36.43.06.85.12,1.25.16.4.05.77.07,1.11.07.4,0,.79-.02,1.16-.07.37-.05.76-.1,1.16-.16-.06.68-.12,1.59-.19,2.73-.06,1.14-.12,2.46-.18,3.96-.06,1.49-.12,3.14-.16,4.95-.05,1.8-.07,3.71-.07,5.71,0,5.37-1.15,9.21-3.47,11.54-2.32,2.33-5.71,3.49-10.18,3.49"/>
  <path class="cls-2" d="M626.83,51.39c-.74-.06-1.44-.09-2.1-.09h-3.93c-.66,0-1.32.03-1.97.09-.49-1.51-1-3.05-1.53-4.63-.52-1.57-1.08-3.14-1.66-4.72-.99-.03-1.97-.05-2.96-.07-.99-.02-1.98-.02-2.96-.02-.8,0-1.6,0-2.4.02-.8.01-1.6.04-2.4.07-.62,1.57-1.19,3.14-1.71,4.72-.52,1.57-1,3.11-1.43,4.63-.37-.06-.73-.09-1.09-.09h-2.2c-.37,0-.77.03-1.2.09.37-.8.86-1.91,1.48-3.33.62-1.42,1.3-3.02,2.04-4.81.74-1.79,1.53-3.71,2.38-5.76.85-2.05,1.7-4.12,2.54-6.22.85-2.1,1.68-4.16,2.5-6.2.82-2.04,1.57-3.93,2.24-5.69.31.06.6.12.88.16.28.05.57.07.88.07s.6-.02.88-.07c.28-.05.57-.1.88-.16.99,2.62,2.04,5.43,3.17,8.42,1.12,2.99,2.26,5.93,3.4,8.81,1.14,2.88,2.25,5.62,3.33,8.21,1.08,2.59,2.07,4.78,2.96,6.57M610.46,28.32c-.8,1.85-1.56,3.68-2.27,5.48-.71,1.8-1.4,3.64-2.08,5.53h8.46c-.68-1.88-1.35-3.72-2.01-5.53-.66-1.8-1.36-3.63-2.1-5.48"/>
  <path class="cls-2" d="M631.51,25.61c-.06-1.99-.15-3.99-.28-5.99.52.06,1.1.12,1.71.16.62.05,1.31.07,2.08.07s1.46-.02,2.08-.07c.62-.05,1.19-.1,1.71-.16-.12,2-.21,4-.28,5.99-.06,1.99-.09,4.26-.09,6.82v6.29c0,1.76,0,3.45.02,5.09.02,1.64.04,3.05.07,4.26,1.76,0,3.51-.05,5.27-.14,1.76-.09,3.53-.25,5.32-.46-.06.34-.11.65-.14.92-.03.28-.05.66-.05,1.15s.01.88.05,1.16c.03.28.08.51.14.69-.83-.03-1.86-.05-3.08-.07-1.22-.01-2.89-.02-5.02-.02h-7.33c-.69,0-1.22,0-1.57.02-.35.02-.66.04-.9.07.12-1.91.22-3.86.28-5.85.06-1.99.09-4.26.09-6.82v-6.29c0-2.56-.03-4.83-.09-6.82"/>
  <path class="cls-2" d="M256.75,83.67c.27.37.6.71.99,1.01.39.3.85.54,1.36.74.52.19,1.1.28,1.74.28s1.26-.12,1.79-.34c.53-.23.98-.54,1.35-.93.37-.39.65-.85.86-1.38.2-.53.3-1.1.3-1.69,0-.92-.24-1.65-.7-2.19-.47-.54-1.06-.99-1.76-1.35-.7-.36-1.46-.69-2.27-.99-.81-.3-1.57-.68-2.26-1.13-.7-.45-1.29-1.02-1.76-1.73-.47-.7-.7-1.64-.7-2.82,0-.84.15-1.61.45-2.3.3-.69.74-1.29,1.3-1.79.57-.5,1.26-.89,2.06-1.17.8-.28,1.7-.42,2.7-.42s1.79.11,2.49.35c.7.23,1.35.59,1.95,1.06-.18.34-.33.7-.45,1.08-.12.38-.24.86-.36,1.44h-.36c-.1-.28-.24-.58-.4-.91-.17-.33-.4-.64-.69-.92-.29-.28-.64-.51-1.03-.7-.4-.19-.88-.29-1.44-.29s-1.08.09-1.55.27c-.47.18-.88.44-1.23.76-.35.33-.62.73-.81,1.18-.19.46-.28.96-.28,1.5,0,.94.23,1.68.7,2.22.47.54,1.05,1,1.76,1.37s1.45.7,2.27.99c.81.29,1.56.64,2.26,1.06.7.42,1.29.96,1.76,1.62.47.66.7,1.54.7,2.64,0,.92-.16,1.79-.49,2.61-.33.82-.81,1.53-1.44,2.14-.63.61-1.4,1.08-2.31,1.41-.91.33-1.95.5-3.11.5-1.24,0-2.25-.17-3.02-.5-.77-.33-1.42-.7-1.93-1.12.18-.46.3-.88.38-1.24s.14-.85.2-1.43h.36c.16.36.38.72.65,1.09"/>
  <path class="cls-2" d="M271.11,81.95c0-1.06.01-1.96.04-2.71.03-.75.05-1.49.05-2.23,0-.7,0-1.46-.02-2.28,0-.82-.02-1.65-.04-2.49.5.1.92.15,1.26.15.32,0,.73-.05,1.23-.15-.1,1.2-.18,2.51-.23,3.94-.05,1.43-.08,2.9-.08,4.4,0,1.04.09,1.83.27,2.38s.4.96.66,1.24c.28.32.64.59,1.07.8.43.21.93.32,1.51.32.84,0,1.54-.19,2.1-.56.56-.37.97-.82,1.23-1.37.14-.34.25-.63.33-.87.08-.24.14-.56.2-.96.05-.4.08-.94.09-1.62.01-.68.01-1.61.01-2.79v-2.52c0-.44,0-.86-.01-1.26-.01-.4-.02-.78-.05-1.14.22.04.43.07.63.11.2.03.41.04.63.04s.43-.02.63-.04c.2-.03.4-.07.6-.11-.1,1.56-.16,3.07-.18,4.51-.02,1.45-.03,2.99-.03,4.61,0,.9.01,1.78.03,2.64.02.86.05,1.69.09,2.49-.4-.04-.79-.06-1.17-.06s-.77.02-1.17.06c.02-.18.03-.37.05-.57.01-.2.02-.41.02-.63v-1.29h-.06c-.52.96-1.19,1.66-2.01,2.12-.82.45-1.71.67-2.67.67-1.56,0-2.79-.41-3.68-1.24s-1.33-2.02-1.33-3.59"/>
  <path class="cls-2" d="M296.69,74.65c-.58-.77-1.38-1.15-2.4-1.15-1.4,0-2.42.43-3.07,1.29-.65.86-.98,2.07-.98,3.63v2.55c0,.9.01,1.85.04,2.84.03.99.09,1.88.2,2.68-.46-.04-.91-.06-1.35-.06s-.89.02-1.35.06c.1-.8.16-1.69.19-2.68s.04-1.94.04-2.84v-3.12c0-.9-.01-1.85-.04-2.83s-.1-1.92-.19-2.77c.56.1,1.01.15,1.35.15.16,0,.34-.01.53-.04.19-.03.41-.06.67-.1-.06.8-.09,1.6-.09,2.4h.06c.56-.86,1.23-1.53,2.01-1.99s1.71-.71,2.79-.71c.56,0,1.13.08,1.7.24.57.16,1.08.44,1.55.83.46.39.83.92,1.12,1.59.29.67.43,1.53.43,2.57,0,.86-.02,1.74-.06,2.65-.04.91-.06,1.88-.06,2.9v1.95c0,.32,0,.64.01.95.01.31.03.6.05.88-.4-.04-.82-.06-1.26-.06s-.83.02-1.23.06c.04-1.04.09-2.11.14-3.21.05-1.1.08-2.23.08-3.39v-1.83c0-1.5-.29-2.64-.87-3.41"/>
  <path class="cls-2" d="M314.6,83.63c-.16.32-.37.66-.64,1.04-.27.37-.61.71-1.02,1.04-.41.32-.89.58-1.45.78-.56.2-1.21.3-1.95.3s-1.51-.13-2.23-.39c-.73-.26-1.38-.68-1.95-1.27-.57-.59-1.03-1.35-1.38-2.28-.35-.93-.52-2.04-.52-3.34s.19-2.39.57-3.33c.38-.94.88-1.72,1.48-2.35.61-.63,1.3-1.1,2.07-1.41.77-.31,1.55-.46,2.33-.46,2.22,0,3.76,1,4.62,3h.06v-2.94c0-.76,0-1.52-.02-2.3-.01-.77-.02-1.5-.03-2.2,0-.7-.02-1.36-.03-1.98,0-.62-.02-1.17-.04-1.65.24.04.47.07.69.11.22.03.44.04.66.04s.44-.02.65-.04c.21-.03.44-.07.7-.11-.06.64-.11,1.57-.15,2.77-.04,1.21-.08,2.54-.11,4-.03,1.46-.06,2.96-.07,4.5-.02,1.54-.03,2.95-.03,4.23,0,1.38,0,2.62.03,3.72.02,1.1.04,2.23.06,3.39-.4-.04-.79-.06-1.17-.06-.36,0-.74.02-1.14.06l.09-2.85h-.06ZM306.09,79.67c0,1.2.12,2.19.38,2.97s.57,1.41.96,1.88c.39.47.83.8,1.33.98.5.18.99.27,1.47.27.78,0,1.45-.19,2.01-.59.56-.39,1.02-.9,1.39-1.53.37-.63.64-1.35.81-2.15.17-.8.26-1.6.26-2.4,0-1.92-.37-3.38-1.11-4.4-.74-1.01-1.83-1.51-3.27-1.51-.72,0-1.35.16-1.88.49-.53.33-.97.79-1.32,1.38-.35.59-.61,1.28-.78,2.07-.17.79-.25,1.63-.25,2.53"/>
  <path class="cls-2" d="M321.45,73.67c.9-.68,1.73-1.14,2.49-1.38.76-.24,1.54-.36,2.34-.36.72,0,1.38.11,1.98.32.6.21,1.11.51,1.53.9.42.39.75.86.99,1.41.24.55.36,1.15.36,1.82,0,1.14-.02,2.27-.06,3.4-.04,1.13-.06,2.33-.06,3.59,0,.24,0,.5.02.77.01.27.05.51.14.72.08.21.19.38.35.52.15.14.38.21.67.21.1,0,.2,0,.32-.01.11,0,.21-.04.32-.1v.66c-.22.1-.5.18-.83.24-.33.06-.7.09-1.1.09-.64,0-1.13-.17-1.47-.49-.34-.33-.54-.76-.6-1.27-.72.72-1.43,1.25-2.13,1.59-.7.34-1.56.51-2.58.51-.5,0-.99-.07-1.47-.21-.48-.14-.9-.37-1.27-.69-.37-.32-.67-.71-.9-1.16-.23-.45-.35-.96-.35-1.54,0-1.2.37-2.13,1.12-2.79.75-.66,1.79-1.1,3.1-1.32,1.08-.18,1.92-.34,2.54-.47.61-.13,1.06-.26,1.35-.41.29-.14.46-.3.52-.49.06-.19.09-.44.09-.73,0-.5-.06-.98-.18-1.44-.12-.46-.31-.86-.57-1.2-.26-.34-.6-.61-1.02-.82-.42-.21-.93-.32-1.53-.32-.8,0-1.54.18-2.23.54-.69.36-1.21.86-1.55,1.5h-.33v-1.56ZM328.86,79.01c-.34.12-.74.22-1.19.3-.45.08-.9.17-1.36.26-.46.09-.92.21-1.36.35-.45.14-.85.33-1.2.57-.35.24-.63.54-.84.9-.21.36-.32.82-.32,1.38,0,.94.27,1.65.81,2.13.54.48,1.14.72,1.8.72.76,0,1.45-.21,2.08-.63.63-.42,1.11-.91,1.45-1.47l.12-4.5Z"/>
  <path class="cls-2" d="M342.43,74.36c-.29-.1-.59-.15-.89-.15-.48,0-.91.11-1.29.33-.38.22-.7.51-.96.88-.26.37-.46.81-.6,1.32-.14.51-.21,1.06-.21,1.64v3.3c0,1.34,0,2.36.01,3.07.01.71.05,1.28.11,1.72-.4-.04-.8-.06-1.2-.06-.44,0-.86.02-1.26.06.06-.68.09-1.6.1-2.77,0-1.17.01-2.6.01-4.31v-.96c0-.78,0-1.68-.01-2.7-.01-1.02-.05-2.19-.1-3.51.22.04.43.08.63.11.2.03.41.04.63.04.18,0,.37-.02.57-.04.2-.03.41-.07.63-.11-.08.72-.12,1.29-.13,1.71,0,.42-.01.82-.01,1.2l.06.03c1.18-2.16,2.5-3.24,3.96-3.24.18,0,.33.01.47.03.13.02.3.07.5.15-.1.24-.16.61-.18,1.1-.02.49-.03.94-.03,1.34l-.21.15c-.1-.12-.3-.23-.59-.33"/>
  <path class="cls-2" d="M346.08,73.67c.9-.68,1.73-1.14,2.49-1.38.76-.24,1.54-.36,2.34-.36.72,0,1.38.11,1.98.32.6.21,1.11.51,1.53.9.42.39.75.86.99,1.41.24.55.36,1.15.36,1.82,0,1.14-.02,2.27-.06,3.4-.04,1.13-.06,2.33-.06,3.59,0,.24,0,.5.01.77.01.27.05.51.14.72.08.21.19.38.35.52.15.14.37.21.67.21.1,0,.2,0,.32-.01.11,0,.21-.04.32-.1v.66c-.22.1-.5.18-.83.24-.33.06-.69.09-1.09.09-.64,0-1.13-.17-1.47-.49-.34-.33-.54-.76-.6-1.27-.72.72-1.43,1.25-2.13,1.59-.7.34-1.56.51-2.58.51-.5,0-.99-.07-1.47-.21-.48-.14-.91-.37-1.28-.69-.37-.32-.67-.71-.9-1.16-.23-.45-.35-.96-.35-1.54,0-1.2.38-2.13,1.12-2.79.75-.66,1.79-1.1,3.11-1.32,1.08-.18,1.92-.34,2.53-.47.61-.13,1.06-.26,1.35-.41.29-.14.47-.3.52-.49.06-.19.09-.44.09-.73,0-.5-.06-.98-.18-1.44-.12-.46-.31-.86-.57-1.2-.26-.34-.6-.61-1.02-.82-.42-.21-.93-.32-1.53-.32-.8,0-1.54.18-2.23.54-.69.36-1.21.86-1.55,1.5h-.33v-1.56ZM353.49,79.01c-.34.12-.74.22-1.18.3-.45.08-.91.17-1.36.26-.46.09-.92.21-1.36.35-.45.14-.85.33-1.2.57-.35.24-.63.54-.84.9s-.32.82-.32,1.38c0,.94.27,1.65.81,2.13.54.48,1.14.72,1.8.72.76,0,1.45-.21,2.08-.63s1.12-.91,1.45-1.47l.12-4.5Z"/>
  <path class="cls-2" d="M360.79,75.01c-.03-.99-.1-1.91-.2-2.77.56.1,1.01.15,1.35.15.16,0,.33-.01.52-.04.19-.03.41-.06.68-.11-.06.8-.09,1.6-.09,2.4h.06c1.06-1.8,2.55-2.7,4.47-2.7.5,0,.99.07,1.47.23.48.15.91.35,1.3.61.39.26.72.58,1.01.95.28.37.47.76.57,1.18h.06c.48-.96,1.14-1.7,1.97-2.21.83-.51,1.78-.76,2.86-.76.66,0,1.27.09,1.83.27.56.18,1.04.46,1.45.84.41.38.73.87.96,1.47.23.6.34,1.32.34,2.16,0,.34-.01.71-.03,1.11-.02.4-.04.86-.06,1.39-.02.53-.04,1.13-.06,1.8-.02.67-.03,1.45-.03,2.33,0,.54,0,1.06.01,1.56.01.5.03,1.04.07,1.62-.22-.04-.44-.06-.66-.06h-1.29c-.22,0-.44.02-.66.06.06-.5.12-1.51.2-3.03s.1-3.64.1-6.36c0-.5-.05-.97-.16-1.41-.11-.44-.29-.82-.53-1.14-.24-.32-.56-.57-.96-.76-.4-.19-.9-.29-1.5-.29-.72,0-1.33.14-1.83.42-.5.28-.89.61-1.17.99-.16.22-.29.44-.37.66-.09.22-.16.56-.21,1.01-.05.45-.09,1.08-.1,1.89-.02.81-.03,1.92-.03,3.34,0,.86.02,1.65.05,2.36.03.71.06,1.49.1,2.32-.46-.04-.9-.06-1.32-.06s-.86.02-1.32.06c.1-1.1.17-2.22.21-3.36.04-1.14.06-2.26.06-3.36,0-.94,0-1.67-.02-2.2,0-.53-.04-.95-.08-1.26s-.09-.57-.16-.76c-.07-.2-.17-.42-.29-.66-.22-.38-.57-.71-1.04-.98-.47-.27-.95-.4-1.45-.4-1.32,0-2.29.43-2.91,1.29-.62.86-.93,2.07-.93,3.63v2.55c0,.9.01,1.85.04,2.84.03.99.1,1.88.19,2.68-.46-.04-.91-.06-1.35-.06s-.89.02-1.35.06c.1-.8.17-1.69.2-2.68.03-.99.05-1.94.05-2.84v-3.12c0-.9-.01-1.84-.05-2.83"/>
  <path class="cls-2" d="M392.21,69.75c-.05-1.27-.11-2.56-.17-3.88.9.04,1.79.07,2.69.1.89.03,1.78.05,2.68.05s1.81-.02,2.73-.05c.92-.03,1.92-.06,3-.1-.06.3-.09.6-.09.9s.03.6.09.9c-.54-.06-1.19-.11-1.95-.17-.76-.05-1.53-.09-2.32-.12-.79-.03-1.55-.05-2.28-.08-.73-.02-1.34-.03-1.82-.03-.02.7-.03,1.37-.04,2.01-.01.64-.02,1.28-.02,1.92,0,.7,0,1.35.02,1.93,0,.59.01,1.2.01,1.85,1.32,0,2.62-.02,3.92-.06,1.29-.04,2.56-.12,3.82-.24-.08.3-.12.6-.12.9s.04.6.12.9c-.5-.06-1.06-.11-1.69-.14s-1.28-.05-1.97-.07c-.68-.02-1.37-.03-2.07-.03h-2.01v2.55c0,1.32.02,2.62.08,3.9.05,1.28.1,2.54.16,3.78-.46-.04-.95-.06-1.47-.06s-1.01.02-1.47.06c.06-1.24.11-2.5.17-3.78.05-1.28.07-2.58.07-3.9v-5.16c0-1.32-.02-2.61-.07-3.89"/>
  <path class="cls-2" d="M406.44,67.01c0-.42.15-.78.45-1.08.3-.3.66-.45,1.08-.45s.78.15,1.08.45c.3.3.45.66.45,1.08s-.15.78-.45,1.08c-.3.3-.66.45-1.08.45s-.78-.15-1.08-.45c-.3-.3-.45-.66-.45-1.08M406.86,77.84c0-.9-.02-1.84-.04-2.83-.03-.99-.1-1.92-.2-2.77.56.1,1.01.15,1.35.15s.79-.05,1.35-.15c-.1.86-.17,1.79-.2,2.77-.03.99-.05,1.93-.05,2.83v3.12c0,.9.02,1.85.05,2.84.03.99.09,1.88.2,2.68-.46-.04-.91-.06-1.35-.06s-.89.02-1.35.06c.1-.8.16-1.69.2-2.68.03-.99.04-1.94.04-2.84v-3.12Z"/>
  <path class="cls-2" d="M423.33,74.65c-.58-.77-1.38-1.15-2.4-1.15-1.4,0-2.42.43-3.07,1.29-.65.86-.98,2.07-.98,3.63v2.55c0,.9.01,1.85.05,2.84.03.99.09,1.88.2,2.68-.46-.04-.91-.06-1.35-.06s-.89.02-1.35.06c.1-.8.16-1.69.2-2.68.03-.99.04-1.94.04-2.84v-3.12c0-.9-.02-1.85-.04-2.83-.03-.99-.1-1.92-.2-2.77.56.1,1.01.15,1.35.15.16,0,.33-.01.52-.04.19-.03.42-.06.67-.1-.06.8-.09,1.6-.09,2.4h.06c.56-.86,1.23-1.53,2.01-1.99.78-.47,1.71-.71,2.79-.71.56,0,1.12.08,1.69.24.57.16,1.08.44,1.54.83.46.39.84.92,1.13,1.59.29.67.43,1.53.43,2.57,0,.86-.02,1.74-.06,2.65-.04.91-.06,1.88-.06,2.9v1.95c0,.32,0,.64.01.95.01.31.02.6.04.88-.4-.04-.82-.06-1.26-.06s-.83.02-1.23.06c.04-1.04.08-2.11.13-3.21.05-1.1.08-2.23.08-3.39v-1.83c0-1.5-.29-2.64-.87-3.41"/>
  <path class="cls-2" d="M431.4,73.67c.9-.68,1.73-1.14,2.49-1.38.76-.24,1.54-.36,2.34-.36.72,0,1.38.11,1.98.32.6.21,1.11.51,1.53.9.42.39.75.86.99,1.41.24.55.36,1.15.36,1.82,0,1.14-.02,2.27-.06,3.4-.04,1.13-.06,2.33-.06,3.59,0,.24,0,.5.01.77.01.27.05.51.14.72.08.21.19.38.35.52.15.14.37.21.67.21.1,0,.21,0,.32-.01s.22-.04.32-.1v.66c-.22.1-.5.18-.83.24-.33.06-.69.09-1.09.09-.64,0-1.13-.17-1.47-.49-.34-.33-.54-.76-.6-1.27-.72.72-1.43,1.25-2.13,1.59-.7.34-1.56.51-2.58.51-.5,0-.99-.07-1.47-.21-.48-.14-.91-.37-1.28-.69-.37-.32-.67-.71-.9-1.16-.23-.45-.35-.96-.35-1.54,0-1.2.38-2.13,1.12-2.79.75-.66,1.79-1.1,3.11-1.32,1.08-.18,1.92-.34,2.53-.47.61-.13,1.06-.26,1.35-.41.29-.14.47-.3.53-.49.06-.19.09-.44.09-.73,0-.5-.06-.98-.18-1.44-.12-.46-.31-.86-.57-1.2-.26-.34-.6-.61-1.02-.82-.42-.21-.93-.32-1.53-.32-.8,0-1.54.18-2.23.54-.69.36-1.21.86-1.54,1.5h-.33v-1.56ZM438.81,79.01c-.34.12-.74.22-1.18.3-.45.08-.91.17-1.36.26-.46.09-.92.21-1.36.35-.45.14-.85.33-1.2.57-.35.24-.63.54-.84.9-.21.36-.32.82-.32,1.38,0,.94.27,1.65.81,2.13.54.48,1.14.72,1.8.72.76,0,1.46-.21,2.09-.63s1.12-.91,1.45-1.47l.12-4.5Z"/>
  <path class="cls-2" d="M455.01,74.65c-.58-.77-1.38-1.15-2.4-1.15-1.4,0-2.43.43-3.08,1.29-.65.86-.97,2.07-.97,3.63v2.55c0,.9.01,1.85.04,2.84.03.99.09,1.88.19,2.68-.46-.04-.91-.06-1.35-.06s-.89.02-1.35.06c.1-.8.17-1.69.2-2.68.03-.99.04-1.94.04-2.84v-3.12c0-.9-.01-1.85-.04-2.83-.03-.99-.1-1.92-.2-2.77.56.1,1.01.15,1.35.15.16,0,.33-.01.53-.04.19-.03.41-.06.68-.1-.06.8-.09,1.6-.09,2.4h.06c.56-.86,1.23-1.53,2.01-1.99.78-.47,1.71-.71,2.79-.71.56,0,1.13.08,1.7.24.57.16,1.08.44,1.54.83.46.39.83.92,1.12,1.59.29.67.43,1.53.43,2.57,0,.86-.02,1.74-.06,2.65-.04.91-.06,1.88-.06,2.9v1.95c0,.32,0,.64.02.95.01.31.03.6.05.88-.4-.04-.82-.06-1.26-.06s-.83.02-1.23.06c.04-1.04.09-2.11.13-3.21.05-1.1.08-2.23.08-3.39v-1.83c0-1.5-.29-2.64-.87-3.41"/>
  <path class="cls-2" d="M461.76,79.4c0-1.3.22-2.42.66-3.36.44-.94,1.01-1.71,1.72-2.33.71-.61,1.53-1.06,2.45-1.35.92-.29,1.86-.43,2.82-.43,1.1,0,2.09.13,2.95.4.87.27,1.49.58,1.88.91-.14.3-.27.62-.37.95-.11.33-.21.67-.29,1.04h-.24c-.14-.26-.33-.52-.57-.8-.24-.27-.53-.52-.86-.75-.33-.23-.7-.42-1.1-.57-.4-.15-.84-.23-1.32-.23-.9,0-1.68.17-2.33.5-.65.33-1.18.79-1.59,1.36-.41.58-.71,1.27-.9,2.06-.19.79-.28,1.64-.28,2.57,0,2.06.44,3.61,1.32,4.66.88,1.05,2.17,1.57,3.87,1.57.4,0,.81-.05,1.23-.16.42-.11.83-.26,1.23-.45.4-.19.78-.41,1.12-.68.35-.26.65-.54.92-.84l.15.09c-.1.48-.16.97-.18,1.47-.6.48-1.35.89-2.23,1.23-.89.34-1.81.51-2.78.51-.86,0-1.72-.12-2.6-.37-.87-.25-1.65-.67-2.35-1.26-.7-.59-1.26-1.35-1.69-2.3-.43-.94-.65-2.09-.65-3.45"/>
  <path class="cls-2" d="M476.55,79.82c0-2.46.59-4.39,1.76-5.79,1.17-1.4,2.88-2.1,5.11-2.1,1.06,0,1.97.16,2.75.49.77.33,1.41.77,1.93,1.32.52.55.91,1.2,1.16,1.93.25.74.38,1.53.38,2.37,0,.2,0,.4-.02.59,0,.19-.03.38-.05.59-1.08-.02-2.15-.04-3.21-.06-1.06-.02-2.13-.03-3.21-.03-.66,0-1.32,0-1.97.03-.65.02-1.31.04-1.96.06-.02.1-.03.25-.03.45v.39c0,.78.11,1.51.35,2.19.23.68.56,1.26,1.01,1.76.44.49.98.88,1.62,1.17.64.29,1.38.43,2.22.43.4,0,.81-.05,1.23-.16.42-.11.83-.26,1.23-.45.4-.19.77-.41,1.13-.68.35-.26.65-.54.91-.84l.15.09-.18,1.47c-.6.48-1.35.89-2.23,1.23-.89.34-1.81.51-2.78.51-1.08,0-2.07-.16-2.95-.5-.89-.33-1.66-.81-2.31-1.44-.65-.63-1.15-1.38-1.5-2.24-.35-.86-.53-1.79-.53-2.79M483.48,72.89c-.74,0-1.37.17-1.88.51-.51.34-.93.77-1.26,1.27-.33.51-.58,1.07-.75,1.68-.17.61-.28,1.18-.32,1.72.62.02,1.26.04,1.93.06.67.02,1.33.03,1.97.03s1.33,0,2.01-.03c.68-.02,1.34-.04,1.98-.06,0-.54-.04-1.11-.13-1.71-.09-.6-.27-1.16-.54-1.68-.27-.52-.64-.95-1.12-1.29-.48-.34-1.11-.51-1.89-.51"/>
  <path class="cls-2" d="M517.47,68.45c-.45-.36-.95-.67-1.5-.94-.55-.27-1.16-.49-1.83-.66-.67-.17-1.38-.26-2.14-.26-1.24,0-2.39.19-3.46.57-1.07.38-2,.96-2.79,1.76-.79.79-1.41,1.79-1.86,3-.45,1.21-.67,2.64-.67,4.3,0,1.46.2,2.78.6,3.96.4,1.18.99,2.18,1.76,2.99.77.81,1.71,1.43,2.82,1.88,1.11.44,2.36.66,3.76.66.42,0,.86-.02,1.32-.06.46-.04.91-.1,1.34-.18.43-.08.83-.18,1.2-.3.37-.12.69-.26.95-.42.02-.6.04-1.2.05-1.8,0-.6.01-1.21.01-1.83,0-.7-.01-1.4-.04-2.1-.03-.7-.07-1.37-.1-2.01.5.1.98.15,1.44.15.22,0,.44-.01.66-.03.22-.02.43-.06.63-.12-.04.46-.07,1.18-.09,2.17-.02.99-.03,2.29-.03,3.92,0,.4,0,.81.02,1.21,0,.41.01.82.01,1.22-.42.16-.94.32-1.57.49-.63.17-1.3.31-2.01.42-.71.11-1.42.21-2.13.3s-1.35.14-1.94.14c-1.78,0-3.38-.22-4.81-.65-1.43-.43-2.64-1.1-3.65-1.99-1-.9-1.77-2.02-2.31-3.36-.54-1.34-.81-2.89-.81-4.65s.28-3.21.84-4.55c.56-1.33,1.35-2.45,2.37-3.38,1.02-.92,2.26-1.62,3.71-2.1,1.45-.48,3.05-.72,4.81-.72,1.02,0,1.92.05,2.72.16.79.11,1.49.26,2.1.43.61.18,1.15.37,1.61.57.46.2.87.39,1.23.57-.16.28-.3.64-.43,1.08-.13.44-.22.85-.25,1.23h-.36c-.3-.36-.67-.72-1.12-1.08"/>
  <path class="cls-2" d="M530.37,74.36c-.29-.1-.58-.15-.88-.15-.48,0-.91.11-1.29.33-.38.22-.7.51-.96.88-.26.37-.46.81-.6,1.32-.14.51-.21,1.06-.21,1.64v3.3c0,1.34,0,2.36.01,3.07.01.71.05,1.28.11,1.72-.4-.04-.8-.06-1.2-.06-.44,0-.86.02-1.26.06.06-.68.1-1.6.11-2.77.01-1.17.01-2.6.01-4.31v-.96c0-.78,0-1.68-.01-2.7-.01-1.02-.05-2.19-.11-3.51.22.04.43.08.63.11.2.03.41.04.63.04.18,0,.37-.02.57-.04.2-.03.41-.07.63-.11-.08.72-.13,1.29-.14,1.71-.01.42-.02.82-.02,1.2l.06.03c1.18-2.16,2.5-3.24,3.96-3.24.18,0,.34.01.46.03.13.02.3.07.5.15-.1.24-.16.61-.18,1.1-.02.49-.03.94-.03,1.34l-.21.15c-.1-.12-.3-.23-.59-.33"/>
  <path class="cls-2" d="M532.84,79.4c0-1.36.22-2.51.64-3.46.43-.95,1-1.72,1.7-2.31.7-.59,1.48-1.02,2.35-1.29.87-.27,1.74-.4,2.59-.4s1.75.13,2.61.4c.86.27,1.64.7,2.34,1.29.7.59,1.26,1.36,1.69,2.31.43.95.65,2.1.65,3.46s-.22,2.52-.65,3.47c-.43.95-1,1.72-1.69,2.31-.7.59-1.48,1.01-2.34,1.24-.86.24-1.73.36-2.61.36s-1.72-.12-2.59-.36c-.87-.24-1.66-.65-2.35-1.24-.7-.59-1.27-1.36-1.7-2.31-.43-.95-.64-2.1-.64-3.47M535.48,79.4c0,.84.08,1.65.23,2.43.15.78.4,1.48.76,2.09.36.61.84,1.09,1.44,1.45.6.36,1.34.54,2.22.54s1.62-.18,2.22-.54c.6-.36,1.08-.84,1.44-1.45.36-.61.61-1.31.77-2.09.15-.78.22-1.59.22-2.43s-.08-1.65-.22-2.43c-.15-.78-.4-1.48-.77-2.08-.36-.61-.84-1.1-1.44-1.46-.6-.36-1.34-.54-2.22-.54s-1.62.18-2.22.54c-.6.36-1.08.84-1.44,1.46-.36.61-.61,1.3-.76,2.08-.15.78-.23,1.59-.23,2.43"/>
  <path class="cls-2" d="M550.75,81.95c0-1.06.01-1.96.04-2.71.03-.75.05-1.49.05-2.23,0-.7,0-1.46-.01-2.28-.01-.82-.03-1.65-.05-2.49.5.1.92.15,1.26.15.32,0,.73-.05,1.23-.15-.1,1.2-.18,2.51-.22,3.94-.05,1.43-.08,2.9-.08,4.4,0,1.04.09,1.83.27,2.38.18.55.4.96.66,1.24.28.32.64.59,1.07.8.43.21.93.32,1.52.32.84,0,1.54-.19,2.1-.56.56-.37.97-.82,1.23-1.37.14-.34.25-.63.33-.87.08-.24.14-.56.2-.96.05-.4.08-.94.09-1.62.01-.68.01-1.61.01-2.79v-2.52c0-.44,0-.86-.01-1.26,0-.4-.03-.78-.05-1.14.22.04.43.07.63.11.2.03.41.04.63.04s.43-.02.63-.04c.2-.03.4-.07.6-.11-.1,1.56-.16,3.07-.18,4.51-.02,1.45-.03,2.99-.03,4.61,0,.9,0,1.78.03,2.64.02.86.05,1.69.09,2.49-.4-.04-.79-.06-1.17-.06s-.77.02-1.17.06c.02-.18.03-.37.04-.57.01-.2.02-.41.02-.63v-1.29h-.06c-.52.96-1.19,1.66-2.01,2.12-.82.45-1.71.67-2.67.67-1.56,0-2.79-.41-3.67-1.24-.89-.83-1.33-2.02-1.33-3.59"/>
  <path class="cls-2" d="M567.1,80.96c0-.68,0-1.42-.02-2.22-.01-.8-.03-1.6-.05-2.39-.02-.79-.04-1.54-.08-2.26-.03-.72-.06-1.34-.1-1.86.56.1,1.01.15,1.35.15s.79-.05,1.35-.15c-.08.52-.14,1.02-.18,1.5-.04.48-.06.96-.06,1.44h.06c.14-.32.34-.67.6-1.04.26-.37.6-.72,1.01-1.05.41-.33.91-.6,1.48-.83.58-.22,1.24-.33,1.98-.33s1.51.14,2.25.43c.74.29,1.39.73,1.97,1.33.57.6,1.03,1.36,1.38,2.3.35.93.53,2.03.53,3.31s-.19,2.39-.57,3.33c-.38.94-.88,1.72-1.49,2.34-.61.62-1.3,1.08-2.08,1.37-.78.29-1.56.43-2.34.43-2.2,0-3.77-.95-4.71-2.85h-.06v1.89c0,.64,0,1.36.02,2.15,0,.79.02,1.57.05,2.35.02.78.04,1.52.07,2.24.03.71.07,1.32.11,1.82-.56-.1-1.01-.15-1.35-.15s-.79.05-1.35.15c.04-.5.08-1.11.1-1.82.03-.71.06-1.46.08-2.24.02-.78.03-1.57.05-2.35.01-.79.02-1.51.02-2.15v-4.86ZM577.93,79.28c0-1.2-.13-2.19-.38-2.97-.25-.78-.57-1.41-.96-1.88-.39-.47-.84-.8-1.34-.98-.5-.18-.99-.27-1.47-.27-.8,0-1.48.17-2.05.51-.57.34-1.03.8-1.39,1.36-.36.57-.62,1.24-.78,2.01-.16.77-.24,1.58-.24,2.45,0,4.16,1.46,6.24,4.38,6.24.72,0,1.34-.16,1.88-.49.53-.33.97-.79,1.32-1.38.35-.59.61-1.28.78-2.07.17-.79.26-1.63.26-2.54"/>
  <rect class="cls-2" x="591.2" y="77.88" width="57.93" height="2.48"/>
  <rect class="cls-2" x="186.61" y="77.88" width="57.93" height="2.48"/>
</svg>