<svg width="259" height="43" viewBox="0 0 259 43" fill="none" xmlns="http://www.w3.org/2000/svg">
<g clip-path="url(#clip0_38135_2960)">
<path fill-rule="evenodd" clip-rule="evenodd" d="M46.375 42.1445H32.0644L23.375 26.1445H37.6832L46.375 42.1445Z" fill="white"/>
<path fill-rule="evenodd" clip-rule="evenodd" d="M23.9959 1.14453L31.375 13.5223L15.0681 41.1446H0.375L23.9959 1.14453Z" fill="white"/>
<path fill-rule="evenodd" clip-rule="evenodd" d="M89.8166 15.9046C89.5155 15.4083 89.1537 15.0433 88.7336 14.8095C88.3134 14.5733 87.7905 14.4588 87.1603 14.4588C86.453 14.4588 85.9115 14.621 85.538 14.9503C85.1645 15.2771 84.9778 15.6899 84.9778 16.1861C84.9778 17.0164 85.573 17.6081 86.7658 17.9565L88.4394 18.4599C89.7886 18.8607 90.783 19.4214 91.4203 20.1371C92.0552 20.8553 92.375 21.7094 92.375 22.702C92.375 23.3318 92.2536 23.9188 92.0085 24.4604C91.7681 25.0043 91.4203 25.4744 90.9674 25.868C90.5146 26.2641 89.966 26.5766 89.3241 26.8033C88.6822 27.0323 87.9679 27.1445 87.1813 27.1445C85.5917 27.1445 84.3405 26.7842 83.4231 26.0589C82.5035 25.336 81.9549 24.291 81.7705 22.9215L84.2098 22.461C84.3522 23.3581 84.679 24.0261 85.1855 24.4604C85.6874 24.897 86.355 25.1141 87.1813 25.1141C88.0309 25.1141 88.6892 24.9041 89.1491 24.4818C89.6066 24.0595 89.8377 23.5132 89.8377 22.8427C89.8377 22.4801 89.777 22.1723 89.6602 21.917C89.5412 21.6641 89.3755 21.4374 89.1584 21.2442C88.9413 21.0486 88.6869 20.8839 88.3904 20.7503C88.0963 20.6167 87.7765 20.4974 87.4357 20.3877L85.8228 19.9057C84.6696 19.5574 83.8176 19.073 83.2644 18.4479C82.7135 17.8252 82.4381 17.0713 82.4381 16.1861C82.4381 15.6374 82.5501 15.1316 82.7719 14.6687C82.996 14.2059 83.3158 13.8098 83.7289 13.4829C84.1398 13.1537 84.6323 12.896 85.2018 12.7075C85.7737 12.5214 86.4133 12.426 87.1229 12.426C88.3274 12.426 89.3101 12.6503 90.0711 13.1012C90.8344 13.5497 91.4039 14.1558 91.7844 14.9192L89.8166 15.9046ZM76.9503 26.8844H79.4479V12.667H76.9503V26.8844ZM66.7987 19.4429L62.1162 12.667H64.9873L68.2552 17.5747L71.5395 12.667H74.3733L69.6324 19.4643L74.7678 26.8844H71.8943L68.1945 21.416L64.4574 26.8844H61.5653L66.7987 19.4429ZM50.8044 21.676H55.8207L53.3628 16.8089L50.8044 21.676ZM56.8244 23.6873H49.761L48.05 26.8844H45.375L53.3814 12.1445L61.2315 26.8844H58.5168L56.8244 23.6873Z" fill="white"/>
<path fill-rule="evenodd" clip-rule="evenodd" d="M108.073 21.1812C107.807 20.7118 107.544 20.1996 107.285 19.6445C107.024 19.0893 106.78 18.5295 106.554 17.9672C106.488 18.7177 106.393 19.4753 106.274 20.2377C106.153 21.0001 106.02 21.7244 105.873 22.4057L104.955 26.8038H102.375L105.615 12.1445L111.376 22.3247L117.134 12.1445L120.375 26.8038H117.796L116.875 22.4057C116.725 21.7244 116.593 21.0001 116.464 20.2377C116.336 19.4753 116.239 18.7177 116.175 17.9672C115.947 18.5295 115.705 19.0893 115.444 19.6445C115.185 20.1996 114.929 20.7118 114.673 21.1812L111.376 27.1445L108.073 21.1812Z" fill="white"/>
<path fill-rule="evenodd" clip-rule="evenodd" d="M126.081 23.8832C126.759 24.5611 127.691 24.9012 128.874 24.9012C130.062 24.9012 130.992 24.5611 131.672 23.8832C132.348 23.2053 132.687 22.2488 132.687 21.0163V12.1445H135.375V21.1001C135.375 22.0122 135.232 22.8404 134.941 23.5824C134.652 24.3219 134.232 24.9579 133.68 25.483C133.132 26.0081 132.449 26.4173 131.64 26.7081C130.828 26.999 129.904 27.1445 128.874 27.1445C127.829 27.1445 126.907 26.999 126.103 26.7081C125.297 26.4173 124.621 26.0081 124.068 25.483C123.518 24.9579 123.099 24.3219 122.81 23.5824C122.521 22.8404 122.375 22.0122 122.375 21.1001V12.1445H125.066V21.0163C125.066 22.2488 125.402 23.2053 126.081 23.8832Z" fill="white"/>
<path fill-rule="evenodd" clip-rule="evenodd" d="M136.375 12.1445H148.375V14.2448H143.697V26.1445H141.054V14.2448H136.375V12.1445Z" fill="white"/>
<path fill-rule="evenodd" clip-rule="evenodd" d="M153.083 23.8832C153.761 24.5611 154.691 24.9012 155.877 24.9012C157.062 24.9012 157.994 24.5611 158.672 23.8832C159.348 23.2053 159.687 22.2488 159.687 21.0163V12.1445H162.375V21.1001C162.375 22.0122 162.232 22.8404 161.941 23.5824C161.652 24.3219 161.232 24.9579 160.682 25.483C160.132 26.0081 159.451 26.4173 158.64 26.7081C157.828 26.999 156.906 27.1445 155.877 27.1445C154.832 27.1445 153.907 26.999 153.103 26.7081C152.299 26.4173 151.621 26.0081 151.071 25.483C150.518 24.9579 150.101 24.3219 149.81 23.5824C149.521 22.8404 149.375 22.0122 149.375 21.1001V12.1445H152.066V21.0163C152.066 22.2488 152.402 23.2053 153.083 23.8832Z" fill="white"/>
<path fill-rule="evenodd" clip-rule="evenodd" d="M168.854 21.8442H173.916L171.435 16.8911L168.854 21.8442ZM174.928 23.891H167.803L166.075 27.1445H163.375L171.454 12.1445L179.375 27.1445H176.636L174.928 23.891Z" fill="white"/>
<path fill-rule="evenodd" clip-rule="evenodd" d="M181.375 12.1445H183.715V24.0441H189.375V26.1445H181.375V12.1445Z" fill="white"/>
<path fill-rule="evenodd" clip-rule="evenodd" d="M199.375 12.1445H208.375V14.2448H201.908V17.9475H207.795V20.0455H201.908V26.1445H199.375V12.1445Z" fill="white"/>
<path fill-rule="evenodd" clip-rule="evenodd" d="M214.083 23.8832C214.761 24.5611 215.693 24.9012 216.877 24.9012C218.062 24.9012 218.994 24.5611 219.672 23.8832C220.348 23.2053 220.687 22.2488 220.687 21.0163V12.1445H223.375V21.1001C223.375 22.0122 223.232 22.8404 222.941 23.5824C222.654 24.3219 222.232 24.9579 221.682 25.483C221.132 26.0081 220.451 26.4173 219.64 26.7081C218.828 26.999 217.906 27.1445 216.877 27.1445C215.832 27.1445 214.907 26.999 214.103 26.7081C213.299 26.4173 212.621 26.0081 212.071 25.483C211.518 24.9579 211.101 24.3219 210.81 23.5824C210.521 22.8404 210.375 22.0122 210.375 21.1001V12.1445H213.066V21.0163C213.066 22.2488 213.402 23.2053 214.083 23.8832Z" fill="white"/>
<path fill-rule="evenodd" clip-rule="evenodd" d="M228.974 17.3183V26.6657H226.375V12.1445L238.777 21.9707V12.5426H241.375V27.1445L228.974 17.3183Z" fill="white"/>
<path fill-rule="evenodd" clip-rule="evenodd" d="M249.493 24.0441C250.32 24.0441 251.057 23.929 251.708 23.6988C252.356 23.4662 252.905 23.1372 253.354 22.7073C253.799 22.2797 254.142 21.7582 254.378 21.1426C254.614 20.5294 254.734 19.8458 254.734 19.094C254.734 18.3539 254.614 17.6843 254.378 17.0852C254.142 16.4838 253.799 15.9716 253.354 15.5487C252.905 15.1282 252.356 14.804 251.708 14.5784C251.057 14.3552 250.32 14.2425 249.493 14.2425H246.954V24.0441H249.493ZM244.375 12.1445H249.554C250.734 12.1445 251.807 12.316 252.773 12.659C253.742 13.002 254.563 13.4813 255.243 14.0945C255.917 14.7076 256.443 15.4407 256.816 16.2911C257.187 17.1416 257.375 18.0767 257.375 19.094C257.375 20.123 257.187 21.0698 256.816 21.9367C256.443 22.8013 255.917 23.546 255.243 24.1733C254.563 24.8006 253.746 25.2846 252.785 25.6276C251.823 25.9706 250.746 26.1445 249.554 26.1445H244.375V12.1445Z" fill="white"/>
</g>
<defs>
<clipPath id="clip0_38135_2960">
<rect width="258" height="42" fill="white" transform="translate(0.09375 0.5)"/>
</clipPath>
</defs>
</svg>
