<svg width="122" height="40" viewBox="0 0 122 40" fill="none" xmlns="http://www.w3.org/2000/svg">
<g clip-path="url(#clip0_14408_7504)">
<path d="M122.065 0H0V50.9618H122.065V0Z" fill="white"/>
<path d="M120.731 0.916016H1.13867V25.1603H120.731V0.916016Z" fill="#ED1C24"/>
<path d="M120.731 26.2598H1.13867V39.0231H120.731V26.2598Z" fill="#004B8C"/>
<path fill-rule="evenodd" clip-rule="evenodd" d="M12.1675 33.343L13.4363 28.8545H16.3643V36.2743H14.152V33.343L14.3147 31.7553L13.0459 36.2743H11.2891L10.0203 31.6637L10.183 33.343V36.2743H7.9707V28.8545H10.8987L12.1675 33.343Z" fill="white"/>
<path fill-rule="evenodd" clip-rule="evenodd" d="M22.4156 28.8545V33.5262C22.4156 33.8621 22.5132 34.1675 22.741 34.3812C22.9687 34.5644 23.229 34.6866 23.4892 34.6866H23.5868H23.6519C23.8796 34.656 24.1074 34.5339 24.3351 34.3507C24.5303 34.1675 24.6604 33.8927 24.6604 33.5568V28.8545H27.133V33.5262C27.133 34.5033 26.8076 35.2362 26.1895 35.7553C25.5714 36.2743 24.693 36.5186 23.5543 36.5186C22.4482 36.5186 21.6023 36.2438 20.9842 35.7247C20.366 35.2056 20.0732 34.4117 20.0732 33.3736V28.8545H22.4156Z" fill="white"/>
<path fill-rule="evenodd" clip-rule="evenodd" d="M37.1853 28.8545V30.8392H35.0706V36.2743H32.5981V30.8392H30.4834V28.8545H37.1853Z" fill="white"/>
<path fill-rule="evenodd" clip-rule="evenodd" d="M43.107 28.8545V33.5262C43.107 33.8621 43.2372 34.1675 43.4649 34.3812C43.6926 34.5644 43.9204 34.6866 44.2132 34.6866H44.3108H44.3758C44.6036 34.656 44.8313 34.5339 45.059 34.3507C45.2542 34.1675 45.3844 33.8927 45.3844 33.5568V28.8545H47.8244V33.5262C47.8244 34.5033 47.499 35.2362 46.8809 35.7553C46.2302 36.2743 45.3518 36.5186 44.2457 36.5186C43.1396 36.5186 42.2937 36.2438 41.6756 35.7247C41.0574 35.2056 40.7646 34.4117 40.7646 33.3736V28.8545H43.107Z" fill="white"/>
<path fill-rule="evenodd" clip-rule="evenodd" d="M56.0875 28.8545L58.7227 36.2743H56.2502L56.0225 35.3278H53.6475L53.3873 36.2743H50.9473L53.5499 28.8545H56.0875ZM55.5019 33.7705L54.7862 31.3583L54.0705 33.7705H55.5019Z" fill="white"/>
<path fill-rule="evenodd" clip-rule="evenodd" d="M64.4482 28.8545V34.5033H67.7666V36.2743H62.0732V28.8545H64.4482Z" fill="white"/>
<path fill-rule="evenodd" clip-rule="evenodd" d="M82.6025 28.916V30.5038H79.3817V32H81.9844V33.771H79.3817V36.2748H76.9092V28.916H82.6025Z" fill="white"/>
<path fill-rule="evenodd" clip-rule="evenodd" d="M88.5878 28.8545V33.5262C88.5878 33.8621 88.718 34.1675 88.9457 34.3812C89.1734 34.5644 89.4012 34.6866 89.694 34.6866H89.7916H89.8241C90.0844 34.656 90.3121 34.5339 90.5073 34.3507C90.735 34.1675 90.8326 33.8927 90.8326 33.5568V28.8545H93.2726V33.5262C93.2726 34.5033 92.9473 35.2362 92.3292 35.7553C91.6785 36.2743 90.8326 36.5186 89.694 36.5186C88.5878 36.5186 87.742 36.2438 87.1238 35.7247C86.5057 35.2056 86.2129 34.4117 86.2129 33.3736V28.8545H88.5878Z" fill="white"/>
<path fill-rule="evenodd" clip-rule="evenodd" d="M99.3568 28.8545L101.894 32.7018L101.797 31.511V28.8545H104.172V36.2743H101.894L99.3568 32.3049L99.4219 33.5262V36.2743H97.1445V28.8545H99.3568Z" fill="white"/>
<path fill-rule="evenodd" clip-rule="evenodd" d="M110.972 28.8545C111.199 28.8545 111.427 28.885 111.72 28.9156C112.013 28.9461 112.273 29.0377 112.566 29.1293C113.151 29.343 113.672 29.7095 114.16 30.198C114.648 30.7171 114.908 31.4499 114.941 32.3965V32.5797C114.941 33.9232 114.583 34.8698 113.867 35.4499C113.151 35.9995 112.24 36.2743 111.134 36.2743H107.979V28.8545H110.972ZM110.353 34.5033H110.419H110.484H110.549H110.614C111.167 34.5033 111.622 34.3507 111.98 34.0759C112.338 33.8011 112.501 33.2514 112.501 32.4575C112.501 31.6942 112.338 31.2056 112.013 30.9614C111.687 30.7171 111.264 30.5949 110.744 30.5949H110.386V34.5033H110.353Z" fill="white"/>
<path d="M110.126 7.63382C110.126 7.63382 106.677 5.80176 102.48 5.80176C98.2834 5.80176 92.7853 8.48878 92.4925 13.8323C92.4925 13.8323 92.2973 22.1071 102.448 22.1071C108.499 21.8628 110.809 19.9697 110.809 19.9697L108.239 16.2445C108.239 16.2445 105.18 17.9239 102.415 17.8018C99.6498 17.6796 97.7954 15.7865 97.6978 14.1682C97.6002 12.5499 99.1293 10.4124 102.415 10.1071C105.701 9.83229 108.499 11.5117 108.499 11.5117L110.126 7.63382Z" fill="black"/>
<path d="M35.5264 5.80176H40.3413V11.5117H47.824V5.80176H52.6389V21.8323H47.824V15.6644H40.3413V21.8323H35.5264V5.80176Z" fill="black"/>
<path d="M60.9351 9.9239V17.7102H64.9041C64.9041 17.7102 68.5804 17.7407 68.5804 13.6491C68.5804 9.83229 64.8716 9.89336 64.8716 9.89336H60.9351M56.1201 5.80176H65.1969C65.1969 5.80176 73.6556 6.13764 73.6556 13.6491C73.6556 22.1987 65.1969 21.8628 65.1969 21.8628H56.1201V5.80176Z" fill="black"/>
<path d="M76.096 5.80176H91.7771V10.1071H80.9109V12.1529H88.6213V16.0918H80.9109V21.8018H76.0635L76.096 5.80176Z" fill="black"/>
<path d="M109.41 6.93069C109.41 6.93069 105.961 5.09863 101.764 5.09863C97.6 5.09863 92.0693 7.81619 91.7765 13.1292C91.7765 13.1292 91.6139 21.404 101.732 21.404C107.815 21.1597 110.093 19.2666 110.093 19.2666L107.555 15.5414C107.555 15.5414 104.497 17.2208 101.732 17.0986C98.9664 16.9765 97.1445 15.0834 97.0469 13.465C96.9493 11.8467 98.4459 9.70932 101.732 9.40398C105.018 9.12917 107.848 10.8086 107.848 10.8086L109.41 6.93069Z" fill="white"/>
<path d="M34.8105 5.09863H39.6255V10.8086H47.1081V5.09863H51.9231V21.1597H47.1081V14.9612H39.6255V21.1597H34.8105V5.09863Z" fill="white"/>
<path d="M60.2192 9.2513V17.0376H64.1883C64.1883 17.0376 67.8646 17.0681 67.8646 12.9765C67.8646 9.1597 64.1558 9.2513 64.1558 9.2513H60.2192ZM55.4043 5.09863H64.4811C64.4811 5.09863 72.9398 5.46505 72.9398 12.946C72.9398 21.4956 64.4811 21.1597 64.4811 21.1597H55.4043V5.09863Z" fill="white"/>
<path d="M75.3799 5.09863H91.0609V9.40398H80.1948V11.4803H87.9052V15.3887H80.1948V21.0986H75.3799V5.09863Z" fill="white"/>
<path d="M11.0938 16.6711L12.265 15.5719H11.1263V5.09863H16.1039L17.3402 6.25894V5.09863H28.1087V9.89253L26.97 10.9612H28.1087V21.3124H23.2937L22.1876 20.2437V21.3124H11.1263L11.0938 16.6711Z" fill="black"/>
<path d="M11.0941 16.6714L11.1266 16.7019L12.3303 15.5416H11.1591V5.12943H16.1042L17.373 6.3508V5.12943H28.0765V9.89279L26.9053 10.992H28.0765V21.2821H23.2941L22.1554 20.1829V21.2821H11.1591L11.1266 16.6714H11.0941L11.1266 16.7019L11.0941 16.6714H11.0615L11.1266 21.3432H22.2205V20.305L23.2941 21.3432H28.1415V10.931H27.0679L28.1415 9.89279V5.06836H17.3079V6.22866L16.1367 5.06836H11.1266V15.6027H12.2002L11.0615 16.6714H11.0941Z" fill="black"/>
<path d="M25.8312 7.54199H18.251V10.7786H25.8312V7.54199Z" fill="white"/>
<path d="M18.2513 7.54128H18.2188V10.7779H25.8641V7.51074H18.2188V7.54128H18.2513H25.799V10.7474H18.2838V7.54128H18.2513Z" fill="white"/>
<path d="M21.1467 15.8467H13.6641V18.9612H21.1467V15.8467Z" fill="white"/>
<path d="M13.6641 15.8469V18.992H21.1793V15.8164H13.6641V15.8469V15.8775H21.1142V18.9614H13.6966V15.8469H13.6641V15.8775V15.8469Z" fill="white"/>
<path d="M25.8313 11.9082H22.3828V19.0532H25.8313V11.9082Z" fill="white"/>
<path d="M22.3831 11.9085H22.3506V19.084H25.8642V11.8779H22.3506V11.9085H22.3831V11.939H25.7991V19.023H22.4157V11.9085H22.3831V11.939V11.9085Z" fill="white"/>
<path d="M17.1451 7.48047H13.6641V14.8698H17.1451V7.48047Z" fill="#ED1C24"/>
</g>
<defs>
<clipPath id="clip0_14408_7504">
<rect width="122" height="40" fill="white"/>
</clipPath>
</defs>
</svg>
