<svg xmlns="http://www.w3.org/2000/svg" viewBox="0 0 200 200" width="200" height="200">
  <defs>
    <linearGradient id="bg-ps" x1="0%" y1="0%" x2="100%" y2="100%">
      <stop offset="0%" stop-color="#EC4899"/>
      <stop offset="50%" stop-color="#F43F5E"/>
      <stop offset="100%" stop-color="#BE185D"/>
    </linearGradient>
    <clipPath id="clip-ps">
      <circle cx="100" cy="100" r="96"/>
    </clipPath>
    <radialGradient id="glow-ps" cx="50%" cy="35%" r="60%">
      <stop offset="0%" stop-color="#ffffff" stop-opacity="0.15"/>
      <stop offset="100%" stop-color="#ffffff" stop-opacity="0"/>
    </radialGradient>
  </defs>
  <circle cx="100" cy="100" r="98" fill="none" stroke="#EC4899" stroke-opacity="0.3" stroke-width="2"/>
  <circle cx="100" cy="100" r="96" fill="url(#bg-ps)"/>
  <circle cx="100" cy="100" r="96" fill="url(#glow-ps)"/>
  <g clip-path="url(#clip-ps)" fill="#ffffff" fill-opacity="0.92">
    <ellipse cx="100" cy="72" rx="28" ry="32"/>
    <path d="M70 60 Q65 45 72 35 Q80 25 100 22 Q95 30 90 40 Q82 50 75 60 Z"/>
    <path d="M130 60 Q135 45 128 35 Q120 25 100 22 Q105 30 110 40 Q118 50 125 60 Z"/>
    <ellipse cx="100" cy="42" rx="32" ry="22"/>
    <rect x="90" y="100" width="20" height="18" rx="4"/>
    <path d="M100 115 Q130 115 150 135 Q165 150 168 175 L168 220 L32 220 L32 175 Q35 150 50 135 Q70 115 100 115 Z"/>
    <path d="M88 115 L100 130 L112 115" fill="none" stroke="#EC4899" stroke-opacity="0.3" stroke-width="2"/>
  </g>
</svg>
