<svg xmlns="http://www.w3.org/2000/svg" viewBox="0 0 200 200" width="200" height="200">
  <defs>
    <linearGradient id="bg-sp" x1="0%" y1="0%" x2="100%" y2="100%">
      <stop offset="0%" stop-color="#A855F7"/>
      <stop offset="50%" stop-color="#8B5CF6"/>
      <stop offset="100%" stop-color="#6D28D9"/>
    </linearGradient>
    <clipPath id="clip-sp">
      <circle cx="100" cy="100" r="96"/>
    </clipPath>
    <radialGradient id="glow-sp" cx="50%" cy="35%" r="58%">
      <stop offset="0%" stop-color="#ffffff" stop-opacity="0.13"/>
      <stop offset="100%" stop-color="#ffffff" stop-opacity="0"/>
    </radialGradient>
  </defs>
  <circle cx="100" cy="100" r="98" fill="none" stroke="#A855F7" stroke-opacity="0.3" stroke-width="2"/>
  <circle cx="100" cy="100" r="96" fill="url(#bg-sp)"/>
  <circle cx="100" cy="100" r="96" fill="url(#glow-sp)"/>
  <g clip-path="url(#clip-sp)" fill="#ffffff" fill-opacity="0.92">
    <ellipse cx="100" cy="68" rx="26" ry="30"/>
    <path d="M74 55 Q70 38 78 28 Q88 18 100 16 Q96 22 92 32 Q85 42 80 55 Q76 68 73 85 Q70 100 68 115 Q67 125 70 130 L78 125 Q77 115 78 100 Q79 85 80 72 Q82 62 74 55 Z"/>
    <path d="M126 55 Q130 38 122 28 Q112 18 100 16 Q104 22 108 32 Q115 42 120 55 Q124 68 127 85 Q130 100 132 115 Q133 125 130 130 L122 125 Q123 115 122 100 Q121 85 120 72 Q118 62 126 55 Z"/>
    <ellipse cx="100" cy="40" rx="30" ry="20"/>
    <rect x="91" y="95" width="18" height="16" rx="3"/>
    <path d="M100 109 Q132 109 152 130 Q167 148 170 178 L170 220 L30 220 L30 178 Q33 148 48 130 Q68 109 100 109 Z"/>
    <path d="M86 109 Q93 122 100 125 Q107 122 114 109" fill="none" stroke="#6D28D9" stroke-opacity="0.3" stroke-width="2"/>
    <path d="M70 130 Q60 135 52 148 Q45 162 42 180 L42 220 L55 220 L55 180 Q57 165 62 152 Q68 140 76 134 Z" fill="#ffffff" fill-opacity="0.6"/>
  </g>
</svg>
